<svg xmlns="http://www.w3.org/2000/svg" xml:space="preserve" width="350mm" height="50mm" style="shape-rendering:geometricPrecision;text-rendering:geometricPrecision;image-rendering:optimizeQuality;fill-rule:evenodd;clip-rule:evenodd" viewBox="0 0 35000 5000"><defs><style>.fil0{fill:#131313}.fil1{fill:#f7f7f7}.fil2{fill:#131313;fill-rule:nonzero}</style></defs><g id="Layer_x0020_1"><g id="_2185566912016"><circle cx="2457.06" cy="2506.13" r="2457.69" class="fil0"/><path d="M2865.68 1072.84c22.28-70.07 36.36-51.93 78.11-96.81 88.98-95.67-46.21-168.3-180.97-298.46-61.3-59.2-331.95-308.71-348.88-367.04 505.78-29.1 1006.1 185.11 1316.51 405.7 313.88 223.04 576.31 530.06 767.79 982.92 80.7 190.87 37.06 146.03-175.13 380.62-254.19 281.05-242 217.83-357.23 104.27L3298 1529.73c-78.78-77.03-412.96-376.57-432.32-456.89zm414.33 2047.39c-72.12-27.75-240.9-213.22-303.56-274.57l-899.44-880.01c-60.3-84.76 20.43-124.73 59.22-171.49 62-74.73-7.8-116.98-59.07-166.1-124.28-119.03-209.5-193.29-305.9-286.69-99.63-96.53-210.05-207.44-298.73-293.98-48.03-46.86-294.36-260.5-282.24-317.23 38.53-60.07 303.17-232.19 390.85-197.4 38.51 15.27 533.9 514.27 604.14 583.83 58.65 58.08 270.29 287.55 327.19 277.61 145.05-71.61 79.53-212.5 283.12-11.05 85.96 85.07 157.85 156.75 245.5 241.15l744.57 729.29c175.38 170.99 184.69 84.69-244.17 525.36-55.89 57.43-184.06 221.08-261.48 241.28zm-741.93-340.73c10.8 63.8-454.11 509.84-520.91 580.14-58.43 61.49-86.43 90.57-161.71 21.49-49.1-45.07-88.3-88.4-137.96-136.22L458.7 2011.41c-142.43-138.3-116.95-185.67 75.64-560.81 121.91-237.48 126.28-193.68 276.37-47.06l842.15 816.14c94.16 39.03 101.01-60.92 167-88.26 74.44-30.85 131.8 55.14 171.23 93.26 68.31 66.04 539.82 512.46 546.99 554.82zM23.7 2341.48C-78.47 3627.11 906.45 4848.35 2290.87 4947.67c1412.93 101.35 2516.28-998.32 2600.94-2266.98 95.21-1426.55-978.29-2522.03-2266.45-2615.91-552.91-40.3-1027.16 104.15-1468.23 371.41-141.86 85.95-233.34 172.41-346.2 263.34-103.18 83.14-204.17 203.49-289.49 318.62C229.33 1412.32 65.63 1813.88 23.7 2341.48z" class="fil0"/><path d="M3280.01 3120.23c77.42-20.2 205.59-183.85 261.48-241.28 428.86-440.67 419.55-354.37 244.17-525.36l-744.57-729.29c-87.65-84.4-159.54-156.08-245.5-241.15-203.59-201.45-138.07-60.56-283.12 11.05-56.9 9.94-268.54-219.53-327.19-277.61-70.24-69.56-565.63-568.56-604.14-583.83-87.68-34.79-352.32 137.33-390.85 197.4-12.12 56.73 234.21 270.37 282.24 317.23 88.68 86.54 199.1 197.45 298.73 293.98 96.4 93.4 181.62 167.66 305.9 286.69 51.27 49.12 121.07 91.37 59.07 166.1-38.79 46.76-119.52 86.73-59.22 171.49l899.44 880.01c62.66 61.35 231.44 246.82 303.56 274.57zM2538.08 2779.5c-7.17-42.36-478.68-488.78-546.99-554.82-39.43-38.12-96.79-124.11-171.23-93.26-65.99 27.34-72.84 127.29-167 88.26l-842.15-816.14c-150.09-146.62-154.46-190.42-276.37 47.06-192.59 375.14-218.07 422.51-75.64 560.81l1258.8 1233.5c49.66 47.82 88.86 91.15 137.96 136.22 75.28 69.08 103.28 40 161.71-21.49 66.8-70.3 531.71-516.34 520.91-580.14zM2865.68 1072.84c19.36 80.32 353.54 379.86 432.32 456.89l667.88 654.31c115.23 113.56 103.04 176.78 357.23-104.27 212.19-234.59 255.83-189.75 175.13-380.62-191.48-452.86-453.91-759.88-767.79-982.92-310.41-220.59-810.73-434.8-1316.51-405.7 16.93 58.33 287.58 307.84 348.88 367.04 134.76 130.16 269.95 202.79 180.97 298.46-41.75 44.88-55.83 26.74-78.11 96.81z" class="fil1"/></g><path d="M6064.5 3978.36h744.43v-860.88h436.68c711.17 0 1072.99-519.86 1072.99-1043.88 0-519.86-357.66-1039.71-1077.15-1039.71H6064.5v2944.47zm744.43-1522.14v-727.8h432.52c449.16-4.16 449.16 731.96 0 727.8h-432.52z" class="fil2"/><path id="1" d="M9379.11 1033.89h-744.43v2944.47h744.43z" class="fil2"/><path id="2" d="M11292.19 1033.89h-677.89L9587.06 3978.36h798.5l182.99-590.56h786.02l191.31 590.56h798.5l-1052.19-2944.47zm-557.29 1692.65 216.26-860.88h20.8l203.78 860.88h-440.84z" class="fil2"/><path id="3" d="M12539.85 3978.36h744.43V2801.4l-95.65-569.76 20.79-4.16 257.85 590.56 665.42 1160.32h752.75V1033.89h-740.27v1334.99c4.15 0 79.01 507.38 83.17 507.38l-20.79 4.16-249.53-590.56-711.17-1255.97h-707v2944.47z" class="fil2"/><path id="4" d="M15280.54 3009.35c0 673.73 611.35 1010.6 1222.7 1010.6s1218.55-336.87 1218.55-1010.6V2002.9c0-673.73-611.36-1010.6-1222.71-1010.6s-1218.54 332.71-1218.54 1010.6v1006.45zm744.43-1006.45c0-216.26 232.9-332.71 465.79-332.71 241.22 0 486.59 103.97 486.59 332.71v1006.45c0 212.1-237.05 320.23-474.11 320.23-237.05 0-478.27-103.97-478.27-320.23V2002.9z" class="fil2"/><path id="5" d="M18873.79 3978.36h744.43v-848.41l-49.9-594.71 20.79-4.16 395.09 1010.6h511.54l386.78-1010.6 24.95 4.16-45.75 594.71-4.16 848.41h748.6V1033.89h-744.44l-623.83 1438.96-619.67-1438.96h-744.43z" class="fil2"/><path id="6" d="M22824.7 1732.58h1297.56v-698.69h-2050.31v2944.47h2050.31v-702.85H22824.7v-440.84h1193.59v-644.62H22824.7z" class="fil2"/><path id="7" d="M24517.36 3978.36h744.43V2801.4l-95.65-569.76 20.79-4.16 257.85 590.56 665.42 1160.32h752.75V1033.89h-740.27v1334.99c4.15 0 79.01 507.38 83.17 507.38l-20.79 4.16-249.53-590.56-711.17-1255.97h-707v2944.47z" class="fil2"/><path id="8" d="M29470.56 1736.73v-707h-2316.49v707h781.87v2241.63h752.75V1736.73z" class="fil2"/><path id="9" d="M29666.03 3009.35c0 673.73 611.35 1010.6 1222.7 1010.6s1218.55-336.87 1218.55-1010.6V2002.9c0-673.73-611.36-1010.6-1222.71-1010.6s-1218.54 332.71-1218.54 1010.6v1006.45zm744.43-1006.45c0-216.26 232.9-332.71 465.79-332.71 241.22 0 486.59 103.97 486.59 332.71v1006.45c0 212.1-237.05 320.23-474.11 320.23-237.05 0-478.27-103.97-478.27-320.23V2002.9z" class="fil2"/><path id="10" d="M34070.26 3978.36h927.42l-802.66-1010.6c357.66-112.29 578.08-420.05 578.08-964.86-16.63-690.37-486.58-969.01-1093.78-969.01h-1176.95v2944.47h752.75v-935.74h133.08l682.06 935.74zm-815.14-1576.21v-673.73h436.68c469.95 0 469.95 673.73 0 673.73h-436.68z" class="fil2"/></g></svg>